<?xml version="1.0" encoding="utf-8"?>

<!-- The icon can be used freely in both personal and commercial projects with no attribution required, but always appreciated. 
You may NOT sub-license, resell, rent, redistribute or otherwise transfer the icon without express written permission from iconmonstr.com -->

<!DOCTYPE svg PUBLIC "-//W3C//DTD SVG 1.1//EN" "http://www.w3.org/Graphics/SVG/1.1/DTD/svg11.dtd">
<svg version="1.1" xmlns="http://www.w3.org/2000/svg" xmlns:xlink="http://www.w3.org/1999/xlink" x="0px" y="0px"
	 width="512px" height="512px" viewBox="0 0 512 512" enable-background="new 0 0 512 512" xml:space="preserve">
<path id="sms-2-icon" d="M50.918,446.647C67.583,413.5,86.083,368,85.135,336.276C62.684,309.204,50,274.316,50,238.783
	c0-100.183,97.19-173.431,206-173.431c108.132,0,206,72.698,206,173.431c0,104.894-115.562,202.853-274.119,163.914
	C159.083,420.5,95.583,438.5,50.918,446.647z M256,105.469c-91.469,0-165.884,59.805-165.884,133.314
	c0,38.68,16.694,63.037,40.256,87.055c-4.789,35.662-16.289,66.662-16.289,66.662s34-9,72.629-31.56
	c147.805,39.194,235.171-46.094,235.171-122.157C421.883,165.273,347.468,105.469,256,105.469z M193.52,245.266
	c3.549,4.001,5.325,8.979,5.325,14.928c0,7.634-2.996,13.831-8.987,18.592c-5.992,4.762-14.365,7.14-25.117,7.14
	c-9.193,0-17.319-1.763-24.378-5.294l3.94-15.637c7.1,3.613,14.322,5.418,21.67,5.418c4.227,0,7.52-0.801,9.879-2.4
	c4.557-3.091,4.826-9.328,0.34-12.866c-2.135-1.683-5.829-3.406-11.082-5.171c-15.841-5.253-23.762-13.502-23.762-24.748
	c0-7.263,2.914-13.245,8.742-17.945c5.826-4.698,13.584-7.048,23.27-7.048c8.453,0,15.842,1.437,22.162,4.309l-4.311,15.144
	c-5.786-2.708-11.818-4.062-18.098-4.062c-3.858,0-6.875,0.738-9.049,2.215c-4.32,2.934-4.249,8.221-0.524,11.358
	c1.827,1.539,6.207,3.539,13.144,6.001C184.357,237.909,189.971,241.264,193.52,245.266z M369.669,244.967
	c-3.581-4.039-9.31-7.467-17.022-10.191c-6.852-2.433-11.227-4.425-13.004-5.922c-3.504-2.952-3.578-7.881,0.487-10.642
	c2.089-1.419,5.048-2.138,8.796-2.138c6.689,0,12.535,1.506,18.387,4.244l4.561-16.024l-0.354-0.16
	c-6.351-2.886-13.87-4.349-22.348-4.349c-9.745,0-17.67,2.405-23.552,7.148c-5.913,4.768-8.909,10.924-8.909,18.295
	c0,11.409,8.098,19.878,24.068,25.174c5.181,1.74,8.863,3.456,10.946,5.098c4.199,3.312,4.04,9.187-0.313,12.14
	c-2.273,1.542-5.512,2.324-9.627,2.324c-7.939,0-15.018-2.089-21.969-5.625l-4.166,16.534c7.888,3.944,16.162,5.503,24.903,5.503
	c10.808,0,19.353-2.436,25.396-7.238c6.077-4.828,9.158-11.201,9.158-18.943C375.107,254.158,373.277,249.035,369.669,244.967z
	 M273.793,201.588l-17.729,57.25l-14.621-57.25h-25.854l-5.294,82.982h17.729l2.955-66.977h0.246c0,0,10.137,41.532,16.991,65.623
	h14.897c11.449-34.925,18.18-56.799,20.191-65.623h0.369c0,11.738,0.656,34.064,1.971,66.977h18.714l-4.433-82.982H273.793z"/>
</svg>
